<mxfile host="app.diagrams.net" modified="2022-04-28T14:48:56.590Z" agent="5.0 (Windows NT 10.0; Win64; x64) AppleWebKit/537.36 (KHTML, like Gecko) Chrome/100.0.4896.127 Safari/537.36 Edg/100.0.1185.50" etag="wyRLSZcFz1AVgcE02QE6" version="17.4.6" type="github">
  <diagram id="C5RBs43oDa-KdzZeNtuy" name="Page-1">
    <mxGraphModel dx="1038" dy="579" grid="1" gridSize="10" guides="1" tooltips="1" connect="1" arrows="1" fold="1" page="1" pageScale="1" pageWidth="827" pageHeight="1169" math="0" shadow="0">
      <root>
        <mxCell id="WIyWlLk6GJQsqaUBKTNV-0" />
        <mxCell id="WIyWlLk6GJQsqaUBKTNV-1" parent="WIyWlLk6GJQsqaUBKTNV-0" />
        <mxCell id="OCLTvz-6BnxbBowECbOt-2" value="" style="edgeStyle=orthogonalEdgeStyle;rounded=0;orthogonalLoop=1;jettySize=auto;html=1;" edge="1" parent="WIyWlLk6GJQsqaUBKTNV-1" source="OCLTvz-6BnxbBowECbOt-0" target="OCLTvz-6BnxbBowECbOt-1">
          <mxGeometry relative="1" as="geometry" />
        </mxCell>
        <mxCell id="OCLTvz-6BnxbBowECbOt-0" value="start" style="rounded=1;whiteSpace=wrap;html=1;" vertex="1" parent="WIyWlLk6GJQsqaUBKTNV-1">
          <mxGeometry x="210" y="40" width="90" height="20" as="geometry" />
        </mxCell>
        <mxCell id="OCLTvz-6BnxbBowECbOt-4" value="" style="edgeStyle=orthogonalEdgeStyle;rounded=0;orthogonalLoop=1;jettySize=auto;html=1;" edge="1" parent="WIyWlLk6GJQsqaUBKTNV-1" source="OCLTvz-6BnxbBowECbOt-1" target="OCLTvz-6BnxbBowECbOt-3">
          <mxGeometry relative="1" as="geometry" />
        </mxCell>
        <mxCell id="OCLTvz-6BnxbBowECbOt-1" value="Initialize the target agent array" style="rounded=0;whiteSpace=wrap;html=1;" vertex="1" parent="WIyWlLk6GJQsqaUBKTNV-1">
          <mxGeometry x="195" y="90" width="120" height="60" as="geometry" />
        </mxCell>
        <mxCell id="OCLTvz-6BnxbBowECbOt-6" value="" style="edgeStyle=orthogonalEdgeStyle;rounded=0;orthogonalLoop=1;jettySize=auto;html=1;" edge="1" parent="WIyWlLk6GJQsqaUBKTNV-1" source="OCLTvz-6BnxbBowECbOt-3" target="OCLTvz-6BnxbBowECbOt-5">
          <mxGeometry relative="1" as="geometry" />
        </mxCell>
        <mxCell id="OCLTvz-6BnxbBowECbOt-3" value="IF char target array not empty" style="rhombus;whiteSpace=wrap;html=1;rounded=0;" vertex="1" parent="WIyWlLk6GJQsqaUBKTNV-1">
          <mxGeometry x="215" y="190" width="80" height="80" as="geometry" />
        </mxCell>
        <mxCell id="OCLTvz-6BnxbBowECbOt-10" value="yes" style="edgeStyle=orthogonalEdgeStyle;rounded=0;orthogonalLoop=1;jettySize=auto;html=1;" edge="1" parent="WIyWlLk6GJQsqaUBKTNV-1" source="OCLTvz-6BnxbBowECbOt-5" target="OCLTvz-6BnxbBowECbOt-9">
          <mxGeometry relative="1" as="geometry" />
        </mxCell>
        <mxCell id="OCLTvz-6BnxbBowECbOt-13" value="no" style="edgeStyle=orthogonalEdgeStyle;rounded=0;orthogonalLoop=1;jettySize=auto;html=1;" edge="1" parent="WIyWlLk6GJQsqaUBKTNV-1" source="OCLTvz-6BnxbBowECbOt-5" target="OCLTvz-6BnxbBowECbOt-11">
          <mxGeometry relative="1" as="geometry" />
        </mxCell>
        <mxCell id="OCLTvz-6BnxbBowECbOt-5" value="IF char target has pop target" style="rhombus;whiteSpace=wrap;html=1;rounded=0;" vertex="1" parent="WIyWlLk6GJQsqaUBKTNV-1">
          <mxGeometry x="215" y="310" width="80" height="80" as="geometry" />
        </mxCell>
        <mxCell id="OCLTvz-6BnxbBowECbOt-9" value="store&amp;nbsp; pop as target" style="shape=dataStorage;whiteSpace=wrap;html=1;fixedSize=1;" vertex="1" parent="WIyWlLk6GJQsqaUBKTNV-1">
          <mxGeometry x="340" y="325" width="90" height="50" as="geometry" />
        </mxCell>
        <mxCell id="OCLTvz-6BnxbBowECbOt-14" value="yes" style="edgeStyle=orthogonalEdgeStyle;rounded=0;orthogonalLoop=1;jettySize=auto;html=1;" edge="1" parent="WIyWlLk6GJQsqaUBKTNV-1" source="OCLTvz-6BnxbBowECbOt-11" target="OCLTvz-6BnxbBowECbOt-12">
          <mxGeometry relative="1" as="geometry" />
        </mxCell>
        <mxCell id="OCLTvz-6BnxbBowECbOt-18" value="no" style="edgeStyle=orthogonalEdgeStyle;rounded=0;orthogonalLoop=1;jettySize=auto;html=1;" edge="1" parent="WIyWlLk6GJQsqaUBKTNV-1" source="OCLTvz-6BnxbBowECbOt-11" target="OCLTvz-6BnxbBowECbOt-16">
          <mxGeometry relative="1" as="geometry" />
        </mxCell>
        <mxCell id="OCLTvz-6BnxbBowECbOt-11" value="ELSE IF char target has card target" style="rhombus;whiteSpace=wrap;html=1;rounded=0;" vertex="1" parent="WIyWlLk6GJQsqaUBKTNV-1">
          <mxGeometry x="215" y="430" width="80" height="80" as="geometry" />
        </mxCell>
        <mxCell id="OCLTvz-6BnxbBowECbOt-12" value="store&amp;nbsp; card as target" style="shape=dataStorage;whiteSpace=wrap;html=1;fixedSize=1;" vertex="1" parent="WIyWlLk6GJQsqaUBKTNV-1">
          <mxGeometry x="335" y="445" width="90" height="50" as="geometry" />
        </mxCell>
        <mxCell id="OCLTvz-6BnxbBowECbOt-15" value="yes" style="edgeStyle=orthogonalEdgeStyle;rounded=0;orthogonalLoop=1;jettySize=auto;html=1;" edge="1" parent="WIyWlLk6GJQsqaUBKTNV-1" source="OCLTvz-6BnxbBowECbOt-16" target="OCLTvz-6BnxbBowECbOt-17">
          <mxGeometry relative="1" as="geometry" />
        </mxCell>
        <mxCell id="OCLTvz-6BnxbBowECbOt-22" value="no" style="edgeStyle=orthogonalEdgeStyle;rounded=0;orthogonalLoop=1;jettySize=auto;html=1;" edge="1" parent="WIyWlLk6GJQsqaUBKTNV-1" source="OCLTvz-6BnxbBowECbOt-16" target="OCLTvz-6BnxbBowECbOt-20">
          <mxGeometry relative="1" as="geometry" />
        </mxCell>
        <mxCell id="OCLTvz-6BnxbBowECbOt-16" value="ELSE IF np target has card target" style="rhombus;whiteSpace=wrap;html=1;rounded=0;" vertex="1" parent="WIyWlLk6GJQsqaUBKTNV-1">
          <mxGeometry x="215" y="545" width="80" height="80" as="geometry" />
        </mxCell>
        <mxCell id="OCLTvz-6BnxbBowECbOt-17" value="store&amp;nbsp; npc as target" style="shape=dataStorage;whiteSpace=wrap;html=1;fixedSize=1;" vertex="1" parent="WIyWlLk6GJQsqaUBKTNV-1">
          <mxGeometry x="340" y="560" width="90" height="50" as="geometry" />
        </mxCell>
        <mxCell id="OCLTvz-6BnxbBowECbOt-19" value="yes" style="edgeStyle=orthogonalEdgeStyle;rounded=0;orthogonalLoop=1;jettySize=auto;html=1;" edge="1" parent="WIyWlLk6GJQsqaUBKTNV-1" source="OCLTvz-6BnxbBowECbOt-20" target="OCLTvz-6BnxbBowECbOt-21">
          <mxGeometry relative="1" as="geometry" />
        </mxCell>
        <mxCell id="OCLTvz-6BnxbBowECbOt-26" value="no" style="edgeStyle=orthogonalEdgeStyle;rounded=0;orthogonalLoop=1;jettySize=auto;html=1;" edge="1" parent="WIyWlLk6GJQsqaUBKTNV-1" source="OCLTvz-6BnxbBowECbOt-20" target="OCLTvz-6BnxbBowECbOt-24">
          <mxGeometry relative="1" as="geometry" />
        </mxCell>
        <mxCell id="OCLTvz-6BnxbBowECbOt-20" value="ELSE IF truck target has card target" style="rhombus;whiteSpace=wrap;html=1;rounded=0;" vertex="1" parent="WIyWlLk6GJQsqaUBKTNV-1">
          <mxGeometry x="215" y="680" width="80" height="80" as="geometry" />
        </mxCell>
        <mxCell id="OCLTvz-6BnxbBowECbOt-21" value="store&amp;nbsp; truck as target" style="shape=dataStorage;whiteSpace=wrap;html=1;fixedSize=1;" vertex="1" parent="WIyWlLk6GJQsqaUBKTNV-1">
          <mxGeometry x="340" y="695" width="90" height="50" as="geometry" />
        </mxCell>
        <mxCell id="OCLTvz-6BnxbBowECbOt-23" value="yes" style="edgeStyle=orthogonalEdgeStyle;rounded=0;orthogonalLoop=1;jettySize=auto;html=1;" edge="1" parent="WIyWlLk6GJQsqaUBKTNV-1" source="OCLTvz-6BnxbBowECbOt-24" target="OCLTvz-6BnxbBowECbOt-25">
          <mxGeometry relative="1" as="geometry" />
        </mxCell>
        <mxCell id="OCLTvz-6BnxbBowECbOt-30" value="" style="edgeStyle=orthogonalEdgeStyle;rounded=0;orthogonalLoop=1;jettySize=auto;html=1;" edge="1" parent="WIyWlLk6GJQsqaUBKTNV-1" source="OCLTvz-6BnxbBowECbOt-24" target="OCLTvz-6BnxbBowECbOt-29">
          <mxGeometry relative="1" as="geometry" />
        </mxCell>
        <mxCell id="OCLTvz-6BnxbBowECbOt-24" value="ELSE IF tower target has card target" style="rhombus;whiteSpace=wrap;html=1;rounded=0;" vertex="1" parent="WIyWlLk6GJQsqaUBKTNV-1">
          <mxGeometry x="215" y="795" width="80" height="80" as="geometry" />
        </mxCell>
        <mxCell id="OCLTvz-6BnxbBowECbOt-25" value="store&amp;nbsp; tower as target" style="shape=dataStorage;whiteSpace=wrap;html=1;fixedSize=1;" vertex="1" parent="WIyWlLk6GJQsqaUBKTNV-1">
          <mxGeometry x="340" y="810" width="90" height="50" as="geometry" />
        </mxCell>
        <mxCell id="OCLTvz-6BnxbBowECbOt-32" value="" style="edgeStyle=orthogonalEdgeStyle;rounded=0;orthogonalLoop=1;jettySize=auto;html=1;" edge="1" parent="WIyWlLk6GJQsqaUBKTNV-1" source="OCLTvz-6BnxbBowECbOt-29" target="OCLTvz-6BnxbBowECbOt-31">
          <mxGeometry relative="1" as="geometry" />
        </mxCell>
        <mxCell id="OCLTvz-6BnxbBowECbOt-29" value="return target" style="whiteSpace=wrap;html=1;rounded=0;" vertex="1" parent="WIyWlLk6GJQsqaUBKTNV-1">
          <mxGeometry x="195" y="920" width="120" height="60" as="geometry" />
        </mxCell>
        <mxCell id="OCLTvz-6BnxbBowECbOt-31" value="end" style="ellipse;whiteSpace=wrap;html=1;rounded=0;" vertex="1" parent="WIyWlLk6GJQsqaUBKTNV-1">
          <mxGeometry x="380" y="920" width="120" height="60" as="geometry" />
        </mxCell>
      </root>
    </mxGraphModel>
  </diagram>
</mxfile>
